<?xml version="1.0" encoding="UTF-8" standalone="no"?>
<svg viewBox="0 0 50 50"
 xmlns="http://www.w3.org/2000/svg" xmlns:xlink="http://www.w3.org/1999/xlink" version="1.2" baseProfile="tiny">
<title>Qt SVG Document</title>
<desc>Generated with Qt</desc>
<defs>
</defs>
<g fill="none" stroke="black" stroke-width="1" fill-rule="evenodd" stroke-linecap="square" stroke-linejoin="bevel" >

<g fill="none" stroke="#000000" stroke-opacity="1" stroke-width="1" stroke-linecap="square" stroke-linejoin="bevel" transform="matrix(1,0,0,1,0,0)"
font-family="Comfortaa" font-size="10" font-weight="400" font-style="normal" 
>
</g>

<g fill="#13e300" fill-opacity="0.719997" stroke="#13e300" stroke-opacity="1" stroke-width="2.5025" stroke-linecap="square" stroke-linejoin="bevel" transform="matrix(1,0,0,1,2.5,2.5)"
font-family="Comfortaa" font-size="10" font-weight="400" font-style="normal" 
>
<path vector-effect="none" fill-rule="evenodd" d="M-1.25125,18.7488 C-1.25125,7.70306 7.70306,-1.25125 18.7488,-1.25125 L26.2512,-1.25125 C37.2969,-1.25125 46.2512,7.70306 46.2512,18.7488 L46.2512,26.2512 C46.2512,37.2969 37.2969,46.2512 26.2512,46.2512 L18.7488,46.2512 C7.70306,46.2512 -1.25125,37.2969 -1.25125,26.2512 L-1.25125,18.7488"/>
</g>

<g fill="none" stroke="#000000" stroke-opacity="1" stroke-width="1" stroke-linecap="square" stroke-linejoin="bevel" transform="matrix(1,0,0,1,0,0)"
font-family="Comfortaa" font-size="10" font-weight="400" font-style="normal" 
>
</g>

<g fill="none" stroke="#11111b" stroke-opacity="1" stroke-width="1.001" stroke-linecap="square" stroke-linejoin="bevel" transform="matrix(2.5,0,0,2.5,2.5,2.5)"
font-family="Comfortaa" font-size="10" font-weight="400" font-style="normal" 
>
</g>

<g fill="none" stroke="#11111b" stroke-opacity="1" stroke-width="1.001" stroke-linecap="round" stroke-linejoin="miter" stroke-miterlimit="2" transform="matrix(2.5,0,0,2.5,2.5,2.5)"
font-family="Comfortaa" font-size="10" font-weight="400" font-style="normal" 
>
</g>

<g fill="none" stroke="#11111b" stroke-opacity="1" stroke-width="1.001" stroke-linecap="round" stroke-linejoin="miter" stroke-miterlimit="2" transform="matrix(2.5,0,0,2.5,2.5,2.5)"
font-family="Comfortaa" font-size="10" font-weight="400" font-style="normal" 
>
</g>

<g fill="none" stroke="#11111b" stroke-opacity="1" stroke-width="1.001" stroke-linecap="round" stroke-linejoin="miter" stroke-miterlimit="2" transform="matrix(2.5,0,0,2.5,2.5,2.5)"
font-family="Comfortaa" font-size="10" font-weight="400" font-style="normal" 
>
</g>

<g fill="none" stroke="#11111b" stroke-opacity="1" stroke-width="1.001" stroke-linecap="round" stroke-linejoin="miter" stroke-miterlimit="2" transform="matrix(2.5,0,0,2.5,13.5,19.5)"
font-family="Comfortaa" font-size="10" font-weight="400" font-style="normal" 
>
</g>

<g fill="none" stroke="#11111b" stroke-opacity="1" stroke-width="1.001" stroke-linecap="round" stroke-linejoin="miter" stroke-miterlimit="2" transform="matrix(2.5,0,0,2.5,13.5,19.5)"
font-family="Comfortaa" font-size="10" font-weight="400" font-style="normal" 
>
</g>

<g fill="none" stroke="#11111b" stroke-opacity="1" stroke-width="1.001" stroke-linecap="round" stroke-linejoin="miter" stroke-miterlimit="2" transform="matrix(2.5,0,0,2.5,13.5,19.5)"
font-family="Comfortaa" font-size="10" font-weight="400" font-style="normal" 
>
</g>

<g fill="none" stroke="#11111b" stroke-opacity="0.900008" stroke-width="1.2012" stroke-linecap="round" stroke-linejoin="bevel" transform="matrix(2.5,0,0,2.5,13.5,19.5)"
font-family="Comfortaa" font-size="10" font-weight="400" font-style="normal" 
>
<path vector-effect="none" fill-rule="evenodd" d="M0,0.72 C0,0.322355 0.322355,0 0.72,0 L6.48,0 C6.87765,0 7.2,0.322355 7.2,0.72 L7.2,6.48 C7.2,6.87765 6.87765,7.2 6.48,7.2 L0.72,7.2 C0.322355,7.2 0,6.87765 0,6.48 L0,0.72"/>
</g>

<g fill="none" stroke="#11111b" stroke-opacity="1" stroke-width="1.001" stroke-linecap="round" stroke-linejoin="miter" stroke-miterlimit="2" transform="matrix(2.5,0,0,2.5,13.5,19.5)"
font-family="Comfortaa" font-size="10" font-weight="400" font-style="normal" 
>
</g>

<g fill="none" stroke="#11111b" stroke-opacity="1" stroke-width="1.001" stroke-linecap="round" stroke-linejoin="miter" stroke-miterlimit="2" transform="matrix(2.5,0,0,2.5,13.5,19.5)"
font-family="Comfortaa" font-size="10" font-weight="400" font-style="normal" 
>
</g>

<g fill="none" stroke="none" transform="matrix(2.5,0,0,2.5,13.5,19.5)"
font-family="Comfortaa" font-size="10" font-weight="400" font-style="normal" 
>
<path vector-effect="none" fill-rule="evenodd" d="M0,0 L7.2,0 L7.2,7.2 L0,7.2 L0,0"/>
</g>

<g fill="none" stroke="#11111b" stroke-opacity="1" stroke-width="1.001" stroke-linecap="round" stroke-linejoin="miter" stroke-miterlimit="2" transform="matrix(2.5,0,0,2.5,13.5,19.5)"
font-family="Comfortaa" font-size="10" font-weight="400" font-style="normal" 
>
</g>

<g fill="none" stroke="#11111b" stroke-opacity="1" stroke-width="1.001" stroke-linecap="round" stroke-linejoin="miter" stroke-miterlimit="2" transform="matrix(2.5,0,0,2.5,13.5,19.5)"
font-family="Comfortaa" font-size="10" font-weight="400" font-style="normal" 
>
</g>

<g fill="none" stroke="none" transform="matrix(2.5,0,0,2.5,13.5,19.5)"
font-family="Comfortaa" font-size="10" font-weight="400" font-style="normal" 
>
<path vector-effect="none" fill-rule="evenodd" d="M0.4,-0.6006 L0.4,-0.4 L7.6,-0.4 L7.6,6.8 L7.8006,6.8"/>
</g>

<g fill="none" stroke="#11111b" stroke-opacity="1" stroke-width="1.001" stroke-linecap="round" stroke-linejoin="miter" stroke-miterlimit="2" transform="matrix(2.5,0,0,2.5,13.5,19.5)"
font-family="Comfortaa" font-size="10" font-weight="400" font-style="normal" 
>
</g>

<g fill="none" stroke="#11111b" stroke-opacity="1" stroke-width="1.001" stroke-linecap="round" stroke-linejoin="miter" stroke-miterlimit="2" transform="matrix(2.5,0,0,2.5,13.5,19.5)"
font-family="Comfortaa" font-size="10" font-weight="400" font-style="normal" 
>
</g>

<g fill="none" stroke="none" transform="matrix(2.5,0,0,2.5,13.5,19.5)"
font-family="Comfortaa" font-size="10" font-weight="400" font-style="normal" 
>
<path vector-effect="none" fill-rule="evenodd" d="M0.4,-0.6006 L0.4,-0.4 L7.6,-0.4 L7.6,6.8 L7.8006,6.8 L7.8006,-0.6006"/>
</g>

<g fill="none" stroke="#11111b" stroke-opacity="1" stroke-width="1.001" stroke-linecap="round" stroke-linejoin="miter" stroke-miterlimit="2" transform="matrix(2.5,0,0,2.5,13.5,19.5)"
font-family="Comfortaa" font-size="10" font-weight="400" font-style="normal" 
>
</g>

<g fill="none" stroke="#11111b" stroke-opacity="1" stroke-width="1.001" stroke-linecap="round" stroke-linejoin="miter" stroke-miterlimit="2" transform="matrix(2.5,0,0,2.5,13.5,19.5)"
font-family="Comfortaa" font-size="10" font-weight="400" font-style="normal" 
>
</g>

<g fill="none" stroke="none" transform="matrix(2.5,0,0,2.5,13.5,19.5)"
font-family="Comfortaa" font-size="10" font-weight="400" font-style="normal" 
>
<path vector-effect="none" fill-rule="evenodd" d="M0.8,-0.6006 L0.8,-0.8 L8,-0.8 L8,6.4 L7.8006,6.4"/>
</g>

<g fill="none" stroke="#11111b" stroke-opacity="1" stroke-width="1.001" stroke-linecap="round" stroke-linejoin="miter" stroke-miterlimit="2" transform="matrix(2.5,0,0,2.5,13.5,19.5)"
font-family="Comfortaa" font-size="10" font-weight="400" font-style="normal" 
>
</g>

<g fill="none" stroke="#11111b" stroke-opacity="1" stroke-width="1.001" stroke-linecap="round" stroke-linejoin="miter" stroke-miterlimit="2" transform="matrix(2.5,0,0,2.5,13.5,19.5)"
font-family="Comfortaa" font-size="10" font-weight="400" font-style="normal" 
>
</g>

<g fill="none" stroke="none" transform="matrix(2.5,0,0,2.5,13.5,19.5)"
font-family="Comfortaa" font-size="10" font-weight="400" font-style="normal" 
>
<path vector-effect="none" fill-rule="evenodd" d="M0.8,-0.6006 L0.8,-0.8 L8,-0.8 L8,6.4 L7.8006,6.4 L7.8006,-0.6006"/>
</g>

<g fill="none" stroke="#11111b" stroke-opacity="1" stroke-width="1.001" stroke-linecap="round" stroke-linejoin="miter" stroke-miterlimit="2" transform="matrix(2.5,0,0,2.5,13.5,19.5)"
font-family="Comfortaa" font-size="10" font-weight="400" font-style="normal" 
>
</g>

<g fill="none" stroke="#11111b" stroke-opacity="1" stroke-width="1.001" stroke-linecap="round" stroke-linejoin="miter" stroke-miterlimit="2" transform="matrix(2.5,0,0,2.5,13.5,19.5)"
font-family="Comfortaa" font-size="10" font-weight="400" font-style="normal" 
>
</g>

<g fill="none" stroke="none" transform="matrix(2.5,0,0,2.5,13.5,19.5)"
font-family="Comfortaa" font-size="10" font-weight="400" font-style="normal" 
>
<path vector-effect="none" fill-rule="evenodd" d="M1.2,-0.6006 L1.2,-1.2 L8.4,-1.2 L8.4,6 L7.8006,6"/>
</g>

<g fill="none" stroke="#11111b" stroke-opacity="1" stroke-width="1.001" stroke-linecap="round" stroke-linejoin="miter" stroke-miterlimit="2" transform="matrix(2.5,0,0,2.5,13.5,19.5)"
font-family="Comfortaa" font-size="10" font-weight="400" font-style="normal" 
>
</g>

<g fill="none" stroke="#11111b" stroke-opacity="1" stroke-width="1.001" stroke-linecap="round" stroke-linejoin="miter" stroke-miterlimit="2" transform="matrix(2.5,0,0,2.5,13.5,19.5)"
font-family="Comfortaa" font-size="10" font-weight="400" font-style="normal" 
>
</g>

<g fill="none" stroke="none" transform="matrix(2.5,0,0,2.5,13.5,19.5)"
font-family="Comfortaa" font-size="10" font-weight="400" font-style="normal" 
>
<path vector-effect="none" fill-rule="evenodd" d="M1.2,-0.6006 L1.2,-1.2 L8.4,-1.2 L8.4,6 L7.8006,6 L7.8006,-0.6006"/>
</g>

<g fill="none" stroke="#11111b" stroke-opacity="1" stroke-width="1.001" stroke-linecap="round" stroke-linejoin="miter" stroke-miterlimit="2" transform="matrix(2.5,0,0,2.5,13.5,19.5)"
font-family="Comfortaa" font-size="10" font-weight="400" font-style="normal" 
>
</g>

<g fill="none" stroke="#11111b" stroke-opacity="1" stroke-width="1.001" stroke-linecap="round" stroke-linejoin="miter" stroke-miterlimit="2" transform="matrix(2.5,0,0,2.5,13.5,19.5)"
font-family="Comfortaa" font-size="10" font-weight="400" font-style="normal" 
>
</g>

<g fill="none" stroke="none" transform="matrix(2.5,0,0,2.5,13.5,19.5)"
font-family="Comfortaa" font-size="10" font-weight="400" font-style="normal" 
>
<path vector-effect="none" fill-rule="evenodd" d="M1.6,-0.6006 L1.6,-1.6 L8.8,-1.6 L8.8,5.6 L7.8006,5.6"/>
</g>

<g fill="none" stroke="#11111b" stroke-opacity="1" stroke-width="1.001" stroke-linecap="round" stroke-linejoin="miter" stroke-miterlimit="2" transform="matrix(2.5,0,0,2.5,13.5,19.5)"
font-family="Comfortaa" font-size="10" font-weight="400" font-style="normal" 
>
</g>

<g fill="none" stroke="#11111b" stroke-opacity="1" stroke-width="1.001" stroke-linecap="round" stroke-linejoin="miter" stroke-miterlimit="2" transform="matrix(2.5,0,0,2.5,13.5,19.5)"
font-family="Comfortaa" font-size="10" font-weight="400" font-style="normal" 
>
</g>

<g fill="none" stroke="none" transform="matrix(2.5,0,0,2.5,13.5,19.5)"
font-family="Comfortaa" font-size="10" font-weight="400" font-style="normal" 
>
<path vector-effect="none" fill-rule="evenodd" d="M1.6,-0.6006 L1.6,-1.6 L8.8,-1.6 L8.8,5.6 L7.8006,5.6 L7.8006,-0.6006"/>
</g>

<g fill="none" stroke="#11111b" stroke-opacity="1" stroke-width="1.001" stroke-linecap="round" stroke-linejoin="miter" stroke-miterlimit="2" transform="matrix(2.5,0,0,2.5,13.5,19.5)"
font-family="Comfortaa" font-size="10" font-weight="400" font-style="normal" 
>
</g>

<g fill="none" stroke="#11111b" stroke-opacity="1" stroke-width="1.001" stroke-linecap="round" stroke-linejoin="miter" stroke-miterlimit="2" transform="matrix(2.5,0,0,2.5,13.5,19.5)"
font-family="Comfortaa" font-size="10" font-weight="400" font-style="normal" 
>
</g>

<g fill="none" stroke="none" transform="matrix(2.5,0,0,2.5,13.5,19.5)"
font-family="Comfortaa" font-size="10" font-weight="400" font-style="normal" 
>
<path vector-effect="none" fill-rule="evenodd" d="M2,-0.6006 L2,-2 L9.2,-2 L9.2,5.2 L7.8006,5.2"/>
</g>

<g fill="none" stroke="#11111b" stroke-opacity="1" stroke-width="1.001" stroke-linecap="round" stroke-linejoin="miter" stroke-miterlimit="2" transform="matrix(2.5,0,0,2.5,13.5,19.5)"
font-family="Comfortaa" font-size="10" font-weight="400" font-style="normal" 
>
</g>

<g fill="none" stroke="#11111b" stroke-opacity="1" stroke-width="1.001" stroke-linecap="round" stroke-linejoin="miter" stroke-miterlimit="2" transform="matrix(2.5,0,0,2.5,13.5,19.5)"
font-family="Comfortaa" font-size="10" font-weight="400" font-style="normal" 
>
</g>

<g fill="none" stroke="none" transform="matrix(2.5,0,0,2.5,13.5,19.5)"
font-family="Comfortaa" font-size="10" font-weight="400" font-style="normal" 
>
<path vector-effect="none" fill-rule="evenodd" d="M2,-0.6006 L2,-2 L9.2,-2 L9.2,5.2 L7.8006,5.2 L7.8006,-0.6006"/>
</g>

<g fill="none" stroke="#11111b" stroke-opacity="1" stroke-width="1.001" stroke-linecap="round" stroke-linejoin="miter" stroke-miterlimit="2" transform="matrix(2.5,0,0,2.5,13.5,19.5)"
font-family="Comfortaa" font-size="10" font-weight="400" font-style="normal" 
>
</g>

<g fill="none" stroke="#11111b" stroke-opacity="1" stroke-width="1.001" stroke-linecap="round" stroke-linejoin="miter" stroke-miterlimit="2" transform="matrix(2.5,0,0,2.5,13.5,19.5)"
font-family="Comfortaa" font-size="10" font-weight="400" font-style="normal" 
>
</g>

<g fill="none" stroke="#11111b" stroke-opacity="0.900008" stroke-width="1.2012" stroke-linecap="round" stroke-linejoin="bevel" transform="matrix(2.5,0,0,2.5,13.5,19.5)"
font-family="Comfortaa" font-size="10" font-weight="400" font-style="normal" 
>
<path vector-effect="none" fill-rule="evenodd" d="M2.4,-2.4 L6.9588,-2.4 M6.9588,-2.4 C8.41749,-2.4 9.6,-1.21749 9.6,0.2412 L9.6,4.8"/>
</g>

<g fill="none" stroke="#11111b" stroke-opacity="1" stroke-width="1.001" stroke-linecap="round" stroke-linejoin="miter" stroke-miterlimit="2" transform="matrix(2.5,0,0,2.5,13.5,19.5)"
font-family="Comfortaa" font-size="10" font-weight="400" font-style="normal" 
>
</g>

<g fill="none" stroke="#11111b" stroke-opacity="1" stroke-width="1.001" stroke-linecap="round" stroke-linejoin="miter" stroke-miterlimit="2" transform="matrix(2.5,0,0,2.5,13.5,19.5)"
font-family="Comfortaa" font-size="10" font-weight="400" font-style="normal" 
>
</g>

<g fill="none" stroke="none" transform="matrix(2.5,0,0,2.5,13.5,19.5)"
font-family="Comfortaa" font-size="10" font-weight="400" font-style="normal" 
>
<path vector-effect="none" fill-rule="evenodd" d="M2.4,-0.6006 L2.4,-2.4 L9.6,-2.4 L9.6,4.8 L7.8006,4.8 L7.8006,-0.6006"/>
</g>

<g fill="none" stroke="#11111b" stroke-opacity="1" stroke-width="1.001" stroke-linecap="round" stroke-linejoin="miter" stroke-miterlimit="2" transform="matrix(2.5,0,0,2.5,13.5,19.5)"
font-family="Comfortaa" font-size="10" font-weight="400" font-style="normal" 
>
</g>

<g fill="none" stroke="#11111b" stroke-opacity="1" stroke-width="1.001" stroke-linecap="round" stroke-linejoin="miter" stroke-miterlimit="2" transform="matrix(2.5,0,0,2.5,2.5,2.5)"
font-family="Comfortaa" font-size="10" font-weight="400" font-style="normal" 
>
</g>

<g fill="none" stroke="#11111b" stroke-opacity="1" stroke-width="1.001" stroke-linecap="square" stroke-linejoin="bevel" transform="matrix(2.5,0,0,2.5,2.5,2.5)"
font-family="Comfortaa" font-size="10" font-weight="400" font-style="normal" 
>
</g>

<g fill="none" stroke="#000000" stroke-opacity="1" stroke-width="1" stroke-linecap="square" stroke-linejoin="bevel" transform="matrix(1,0,0,1,0,0)"
font-family="Comfortaa" font-size="10" font-weight="400" font-style="normal" 
>
</g>
</g>
</svg>
