<?xml version="1.0" encoding="UTF-8" standalone="no"?>
<svg viewBox="0 0 50 50"
 xmlns="http://www.w3.org/2000/svg" xmlns:xlink="http://www.w3.org/1999/xlink" version="1.2" baseProfile="tiny">
<title>Qt SVG Document</title>
<desc>Generated with Qt</desc>
<defs>
</defs>
<g fill="none" stroke="black" stroke-width="1" fill-rule="evenodd" stroke-linecap="square" stroke-linejoin="bevel" >

<g fill="none" stroke="#000000" stroke-opacity="1" stroke-width="1" stroke-linecap="square" stroke-linejoin="bevel" transform="matrix(1,0,0,1,0,0)"
font-family="Comfortaa" font-size="10" font-weight="400" font-style="normal" 
>
</g>

<g fill="#f9e2af" fill-opacity="0.480003" stroke="#f9e2af" stroke-opacity="0.720012" stroke-width="2.5025" stroke-linecap="square" stroke-linejoin="bevel" transform="matrix(1,0,0,1,2.5,2.5)"
font-family="Comfortaa" font-size="10" font-weight="400" font-style="normal" 
>
<path vector-effect="none" fill-rule="evenodd" d="M-1.25125,18.7488 C-1.25125,7.70306 7.70306,-1.25125 18.7488,-1.25125 L26.2512,-1.25125 C37.2969,-1.25125 46.2512,7.70306 46.2512,18.7488 L46.2512,26.2512 C46.2512,37.2969 37.2969,46.2512 26.2512,46.2512 L18.7488,46.2512 C7.70306,46.2512 -1.25125,37.2969 -1.25125,26.2512 L-1.25125,18.7488"/>
</g>

<g fill="none" stroke="#000000" stroke-opacity="1" stroke-width="1" stroke-linecap="square" stroke-linejoin="bevel" transform="matrix(1,0,0,1,0,0)"
font-family="Comfortaa" font-size="10" font-weight="400" font-style="normal" 
>
</g>

<g fill="none" stroke="#a6adc8" stroke-opacity="0.500008" stroke-width="1.001" stroke-linecap="square" stroke-linejoin="bevel" transform="matrix(2.5,0,0,2.5,2.5,2.5)"
font-family="Comfortaa" font-size="10" font-weight="400" font-style="normal" 
>
</g>

<g fill="none" stroke="#a6adc8" stroke-opacity="0.450004" stroke-width="1.2012" stroke-linecap="round" stroke-linejoin="miter" stroke-miterlimit="2" transform="matrix(2.5,0,0,2.5,2.5,2.5)"
font-family="Comfortaa" font-size="10" font-weight="400" font-style="normal" 
>
<polyline fill="none" vector-effect="none" points="4.4,9.6 13.6,9.6 " />
</g>

<g fill="none" stroke="#a6adc8" stroke-opacity="0.500008" stroke-width="1.001" stroke-linecap="square" stroke-linejoin="bevel" transform="matrix(2.5,0,0,2.5,2.5,2.5)"
font-family="Comfortaa" font-size="10" font-weight="400" font-style="normal" 
>
</g>

<g fill="none" stroke="#000000" stroke-opacity="1" stroke-width="1" stroke-linecap="square" stroke-linejoin="bevel" transform="matrix(1,0,0,1,0,0)"
font-family="Comfortaa" font-size="10" font-weight="400" font-style="normal" 
>
</g>
</g>
</svg>
